<svg version="1.1" id="fbe2c72c-9e19-486f-a3e9-82bd61a173ea"
	 xmlns="http://www.w3.org/2000/svg" xmlns:xlink="http://www.w3.org/1999/xlink" x="0px" y="0px" viewBox="0 0 32 32"
	 enable-background="new 0 0 32 32" xml:space="preserve" fill="none" stroke="#000000" stroke-linejoin="round" stroke-miterlimit="10">
<path d="M30.1,16.1H9.6 M30.1,7.1H9.6 M30.1,25H9.6
	 M4.4,5.1L4.4,5.1c1.1,0,2,0.9,2,2v0c0,1.1-0.9,2-2,2h0c-1.1,0-2-0.9-2-2v0C2.4,6,3.3,5.1,4.4,5.1z M4.4,14.1L4.4,14.1
	c1.1,0,2,0.9,2,2v0c0,1.1-0.9,2-2,2h0c-1.1,0-2-0.9-2-2v0C2.4,14.9,3.3,14.1,4.4,14.1z M4.4,23L4.4,23c1.1,0,2,0.9,2,2v0
	c0,1.1-0.9,2-2,2h0c-1.1,0-2-0.9-2-2v0C2.4,23.9,3.3,23,4.4,23z"/>
</svg>
