<svg version="1.1" id="b192c908-bb8a-4951-980a-9e6919b01d18"
	 xmlns="http://www.w3.org/2000/svg" xmlns:xlink="http://www.w3.org/1999/xlink" x="0px" y="0px" viewBox="0 0 32 32"
	 enable-background="new 0 0 32 32" xml:space="preserve" fill="none" stroke="#000000" stroke-linejoin="round" stroke-miterlimit="10">
<path d="M16,30C8.3,30,2,23.7,2,16S8.3,2,16,2
	s14,6.3,14,14S23.7,30,16,30z M11.1,12.9L10.4,13C5.5,13.5,2,14.7,2,16c0,1.8,6.3,3.3,14,3.3s14-1.5,14-3.3s-6.3-3.3-14-3.3h-1.5
	 M19,10.7C18.5,5.6,17.4,2,16,2c-1.8,0-3.3,6.3-3.3,14s1.5,14,3.3,14c1.3,0,2.4-3.3,3-8.1 M19.3,17c0-0.5,0-1.9,0-2.4"/>
</svg>