<svg version="1.1" id="abd3b4bd-3da6-4086-8745-da22353253f9"
	 xmlns="http://www.w3.org/2000/svg" xmlns:xlink="http://www.w3.org/1999/xlink" x="0px" y="0px" viewBox="0 0 32 32"
	 style="enable-background:new 0 0 32 32;" xml:space="preserve" fill="none" stroke="#000" stroke-linejoin="round" stroke-miterlimit="10">
<path d="M28.2,2.3h-5.6c-0.7,0-1.2,0.5-1.2,1.2v5.6
	c0,0.7,0.5,1.2,1.2,1.2h5.6c0.7,0,1.2-0.5,1.2-1.2V3.5C29.4,2.9,28.9,2.3,28.2,2.3z"/>
<path d="M9.4,11.9H3.8c-0.7,0-1.2,0.5-1.2,1.2v5.6
	c0,0.7,0.5,1.2,1.2,1.2h5.6c0.7,0,1.2-0.5,1.2-1.2v-5.6C10.6,12.5,10,11.9,9.4,11.9z"/>
<line x1="2.9" y1="12.3" x2="10.2" y2="19.6"/>
<line x1="21.7" y1="2.7" x2="29" y2="10"/>
<path d="M28.2,21.5h-5.6c-0.7,0-1.2,0.5-1.2,1.2v5.6
	c0,0.7,0.5,1.2,1.2,1.2h5.6c0.7,0,1.2-0.5,1.2-1.2v-5.6C29.4,22,28.8,21.5,28.2,21.5z"/>
<line x1="21.7" y1="21.9" x2="29" y2="29.2"/>
<path d="M10.6,16h5.2V7.3c0-0.6,0.4-1,1-1h4.7"/>
<path d="M21.4,25.5h-4.6c-0.5,0-1-0.4-1-1V16h-5.2"
	/>
</svg>
